<?xml version="1.0" standalone="no"?>
<!DOCTYPE svg PUBLIC "-//W3C//DTD SVG 20010904//EN"
 "http://www.w3.org/TR/2001/REC-SVG-20010904/DTD/svg10.dtd">
<svg version="1.0" xmlns="http://www.w3.org/2000/svg"
 width="517.000000pt" height="536.000000pt" viewBox="0 0 517.000000 536.000000"
 preserveAspectRatio="xMidYMid meet">
<metadata>
Created by potrace 1.16, written by Peter Selinger 2001-2019
</metadata>
<g transform="translate(0.000000,536.000000) scale(0.100000,-0.100000)"
fill="#000000" stroke="none">
<path d="M0 2680 l0 -2680 2585 0 2585 0 0 2680 0 2680 -2585 0 -2585 0 0
-2680z m5050 1310 l0 -1100 -77 0 c-43 0 -123 -5 -178 -10 -1077 -105 -1995
-845 -2329 -1879 -72 -221 -113 -450 -123 -673 l-6 -148 -1099 0 -1098 0 0
118 c0 121 21 404 40 533 80 552 214 996 449 1484 604 1253 1724 2198 3061
2585 407 117 843 185 1223 189 l137 1 0 -1100z"/>
<path d="M4720 5059 c-1032 -66 -2085 -498 -2855 -1173 -799 -701 -1334 -1579
-1575 -2588 -73 -307 -129 -746 -130 -1015 l0 -83 1074 0 1074 0 6 63 c28 349
49 477 110 678 58 190 96 287 182 459 349 695 958 1199 1709 1414 195 56 458
96 627 96 l88 0 0 1080 0 1080 -87 -1 c-49 -1 -149 -6 -223 -10z"/>
</g>
</svg>
